<?xml version="1.0" encoding="UTF-8"?>
<svg version="1.1" xmlns="http://www.w3.org/2000/svg" width="576" height="176">
<path d="M0 0 C10.88306454 8.09107416 16.93750477 22.18500642 19.86328125 35.11328125 C20.2391859 37.67021603 20.3126716 40.08364734 20.23828125 42.6640625 C13.32696502 45.47161871 6.30060629 47.26374718 -0.94140625 49.01953125 C-2.19051788 49.32603104 -3.43962952 49.63253082 -4.72659302 49.94831848 C-7.35313349 50.59251139 -9.98043626 51.23345831 -12.60839844 51.87182617 C-15.97894211 52.6906808 -19.34787561 53.51594399 -22.71632195 54.34337902 C-25.93654265 55.13389205 -29.15772912 55.92042409 -32.37890625 56.70703125 C-34.19598587 57.15226387 -34.19598587 57.15226387 -36.04977417 57.60649109 C-37.16498444 57.87709854 -38.2801947 58.14770599 -39.42919922 58.42651367 C-40.41322723 58.66617355 -41.39725525 58.90583344 -42.41110229 59.15275574 C-44.76171875 59.6640625 -44.76171875 59.6640625 -46.76171875 59.6640625 C-43.30533613 66.68388385 -40.28640468 71.45433216 -33.07421875 74.9765625 C-18.56417719 77.98808056 -5.1725396 73.02076844 7.23828125 65.6640625 C10.01829135 63.59622664 12.65705316 61.4645788 15.25 59.16796875 C17.23828125 57.6640625 17.23828125 57.6640625 20.23828125 57.6640625 C21.88828125 65.2540625 23.53828125 72.8440625 25.23828125 80.6640625 C7.46799176 95.89573921 -10.93376231 101.92597724 -34.30566406 100.87695312 C-40.53778564 100.33675332 -48.24019953 99.18558172 -52.76171875 94.6640625 C-52.74423948 91.90816473 -52.62308604 89.27619574 -52.38671875 86.5390625 C-52.33 85.78496094 -52.27328125 85.03085938 -52.21484375 84.25390625 C-52.07327225 82.38988154 -51.91871916 80.52685113 -51.76171875 78.6640625 C-53.20804687 79.11458984 -53.20804687 79.11458984 -54.68359375 79.57421875 C-55.946875 79.95449219 -57.21015625 80.33476563 -58.51171875 80.7265625 C-59.7646875 81.10941406 -61.01765625 81.49226563 -62.30859375 81.88671875 C-67.20721023 82.9894616 -67.20721023 82.9894616 -69.76171875 81.6640625 C-81.08080125 68.62306141 -83.58520768 51.58243226 -82.94091797 35.02001953 C-82.06616652 23.51954065 -76.26607521 12.18058414 -67.87109375 4.32421875 C-61.00326609 -1.08101598 -53.25419241 -5.21689417 -44.76171875 -7.3359375 C-44.05015625 -7.51769531 -43.33859375 -7.69945312 -42.60546875 -7.88671875 C-27.41184996 -10.28680963 -13.02424536 -8.43356239 0 0 Z M-46.5859375 19.21484375 C-49.75524886 22.67576245 -51.91907671 25.98271782 -52.76171875 30.6640625 C-52.6168959 33.70034851 -52.25476073 36.66583424 -51.76171875 39.6640625 C-47.09188822 39.05677346 -42.59035316 38.21507031 -38.0234375 37.0703125 C-36.79173828 36.76222656 -35.56003906 36.45414063 -34.29101562 36.13671875 C-32.38932617 35.65525391 -32.38932617 35.65525391 -30.44921875 35.1640625 C-29.14915595 34.83957357 -27.84902625 34.51535253 -26.54882812 34.19140625 C-20.50738745 32.84785887 -20.50738745 32.84785887 -14.76171875 30.6640625 C-15.44077326 24.89209913 -18.07527053 21.14974308 -22.38671875 17.3515625 C-30.18382125 13.45301125 -39.69676785 13.35831195 -46.5859375 19.21484375 Z " fill="#EB6A1E" transform="translate(363.76171875,12.3359375)"/>
<path d="M0 0 C3.49628227 2.31528616 6.29829846 5.2091882 9.046875 8.35546875 C9.706875 7.44796875 10.366875 6.54046875 11.046875 5.60546875 C14.87912773 0.98711289 20.20271295 -1.5102669 26.046875 -2.64453125 C35.22777845 -3.32654122 42.4206318 -2.68024743 49.796875 3.04296875 C54.79453657 7.61845343 57.81862248 13.91159694 58.16712952 20.69671631 C58.16490891 21.5583136 58.16268829 22.41991089 58.16040039 23.30761719 C58.16028709 24.77868927 58.16028709 24.77868927 58.16017151 26.27947998 C58.15501022 27.33065002 58.14984894 28.38182007 58.14453125 29.46484375 C58.1431163 30.54679016 58.14170135 31.62873657 58.14024353 32.74346924 C58.13464818 36.19749725 58.1220965 39.65146034 58.109375 43.10546875 C58.1043594 45.44791573 58.0997966 47.79036373 58.09570312 50.1328125 C58.08553138 55.87374303 58.06595492 61.61453324 58.046875 67.35546875 C50.786875 67.35546875 43.526875 67.35546875 36.046875 67.35546875 C35.99789062 64.225625 35.94890625 61.09578125 35.8984375 57.87109375 C35.84442607 54.83946963 35.78711917 51.80792448 35.72949219 48.77636719 C35.69121194 46.66965621 35.6563574 44.56288008 35.625 42.45605469 C35.57932902 39.42749754 35.52133755 36.39938853 35.4609375 33.37109375 C35.44938629 32.4292926 35.43783508 31.48749146 35.42593384 30.51715088 C35.40606415 29.63653992 35.38619446 28.75592896 35.36572266 27.84863281 C35.35239899 27.07585999 35.33907532 26.30308716 35.3253479 25.50689697 C35.00859119 23.05969538 34.34624015 21.44659625 33.046875 19.35546875 C29.10132435 17.10086838 25.52364272 16.95575735 21.046875 17.35546875 C17.21284904 19.05948029 15.61562078 20.51640049 14.046875 24.35546875 C13.73171351 26.44421686 13.73171351 26.44421686 13.74389648 28.64916992 C13.72725449 29.48651169 13.71061249 30.32385345 13.69346619 31.18656921 C13.68505203 32.08148575 13.67663788 32.97640228 13.66796875 33.8984375 C13.65097427 34.82263992 13.6339798 35.74684235 13.61647034 36.6990509 C13.56338961 39.64695441 13.52304917 42.59484377 13.484375 45.54296875 C13.44049346 48.50173544 13.39386516 51.46039141 13.34156799 54.41902161 C13.30952766 56.25966579 13.28266381 58.1004084 13.26133728 59.94120789 C13.15864236 66.24370139 13.15864236 66.24370139 12.046875 67.35546875 C10.48514755 67.44232478 8.91958156 67.46249094 7.35546875 67.453125 C6.41123047 67.44990234 5.46699219 67.44667969 4.49414062 67.44335938 C3.50091797 67.43498047 2.50769531 67.42660156 1.484375 67.41796875 C0.48728516 67.41345703 -0.50980469 67.40894531 -1.53710938 67.40429688 C-4.00917349 67.39246882 -6.48112018 67.37598724 -8.953125 67.35546875 C-8.982854 65.48628784 -8.982854 65.48628784 -9.01318359 63.5793457 C-9.08936154 58.94795824 -9.17806032 54.31687994 -9.27050781 49.68579102 C-9.30874717 47.68292351 -9.34360881 45.6799885 -9.375 43.67700195 C-9.42075996 40.79483958 -9.47873654 37.91313981 -9.5390625 35.03125 C-9.55061371 34.1383577 -9.56216492 33.24546539 -9.57406616 32.32551575 C-9.67743197 27.95311045 -9.79137829 24.27798533 -11.953125 20.35546875 C-16.14433619 16.78061214 -19.68923476 16.93769968 -24.953125 17.35546875 C-28.3735116 18.52560101 -28.86852982 19.22857598 -30.953125 22.35546875 C-32.28545177 27.00060801 -32.17512895 31.79726533 -32.26953125 36.59375 C-32.29031235 37.47451706 -32.31109344 38.35528412 -32.33250427 39.26274109 C-32.39766437 42.06440754 -32.45672821 44.86616432 -32.515625 47.66796875 C-32.55884215 49.57227481 -32.60245744 51.47657187 -32.64648438 53.38085938 C-32.75405733 58.03897143 -32.85337981 62.69715622 -32.953125 67.35546875 C-40.213125 67.35546875 -47.473125 67.35546875 -54.953125 67.35546875 C-54.97567818 58.50664151 -54.99404134 49.65783323 -55.00493717 40.8089838 C-55.01016546 36.7005259 -55.01726213 32.59208861 -55.02856445 28.48364258 C-55.03939525 24.52200047 -55.04540224 20.56037823 -55.04800224 16.59872246 C-55.04985614 15.08398564 -55.0534761 13.56924996 -55.05885506 12.05452156 C-55.06606807 9.94005062 -55.06711583 7.82566281 -55.06665039 5.71118164 C-55.068871 4.50538956 -55.07109161 3.29959747 -55.07337952 2.05726624 C-54.953125 -0.64453125 -54.953125 -0.64453125 -53.953125 -1.64453125 C-52.39139755 -1.73138728 -50.82583156 -1.75155344 -49.26171875 -1.7421875 C-48.31748047 -1.73896484 -47.37324219 -1.73574219 -46.40039062 -1.73242188 C-44.91055664 -1.71985352 -44.91055664 -1.71985352 -43.390625 -1.70703125 C-42.39353516 -1.70251953 -41.39644531 -1.69800781 -40.36914062 -1.69335938 C-37.89707651 -1.68153132 -35.42512982 -1.66504974 -32.953125 -1.64453125 C-32.623125 0.33546875 -32.293125 2.31546875 -31.953125 4.35546875 C-30.921875 3.57171875 -29.890625 2.78796875 -28.828125 1.98046875 C-20.24815484 -4.0408622 -9.42698028 -4.7650977 0 0 Z " fill="#FDFDFD" transform="translate(215.953125,29.64453125)"/>
<path d="M0 0 C-0.54506051 7.67267701 -1.95504889 14.97930275 -3.6875 22.46484375 C-3.95006592 23.61996964 -4.21263184 24.77509552 -4.4831543 25.96522522 C-5.03511439 28.38867244 -5.58992714 30.81147156 -6.14746094 33.23364258 C-7.0027259 36.94934268 -7.84978366 40.66683912 -8.6953125 44.38476562 C-9.23390496 46.74489898 -9.77295133 49.10492881 -10.3125 51.46484375 C-10.56668701 52.57729965 -10.82087402 53.68975555 -11.08276367 54.83592224 C-11.31970947 55.86451859 -11.55665527 56.89311493 -11.80078125 57.95288086 C-12.00872314 58.85759628 -12.21666504 59.76231171 -12.4309082 60.69444275 C-13 63 -13 63 -14 66 C-14.66 66 -15.32 66 -16 66 C-20.23056253 58.16895872 -24.40654478 50.31094308 -28.4375 42.375 C-28.94990234 41.38209961 -28.94990234 41.38209961 -29.47265625 40.36914062 C-31.20214229 36.93477505 -32.48022124 33.821472 -33 30 C-34.01156631 30.16472998 -35.02313261 30.32945995 -36.06535244 30.49918175 C-39.7734809 30.97116771 -43.22162211 31.08180003 -46.95436096 31.01309204 C-47.61896786 31.00240137 -48.28357476 30.99171071 -48.96832126 30.98069608 C-51.17896065 30.94378561 -53.38936296 30.89889721 -55.59985352 30.85400391 C-57.19484115 30.82573399 -58.78983766 30.79796117 -60.38484192 30.77064514 C-64.72326464 30.69494933 -69.06153148 30.61232989 -73.39980435 30.52853823 C-78.0071797 30.44079079 -82.61467056 30.35958961 -87.22215271 30.27767944 C-96.01630186 30.12037716 -104.81033724 29.95744838 -113.60434431 29.79241312 C-124.32013342 29.59153415 -135.03603768 29.39712776 -145.75195312 29.203125 C-149.57116763 29.13393098 -153.39038142 29.06469785 -157.20959473 28.99543762 C-158.14915685 28.97840469 -159.08871898 28.96137176 -160.05675268 28.94382268 C-166.66053564 28.82398416 -173.26429268 28.70277707 -179.86804199 28.58110046 C-196.81933062 28.26926292 -213.77062987 27.96375356 -230.72265625 27.69458008 C-231.44720438 27.68305546 -232.17175251 27.67153085 -232.91825664 27.659657 C-240.19908472 27.54407494 -247.47995063 27.43137273 -254.76087952 27.32229614 C-271.84714706 27.06218442 -288.92436694 26.66364932 -306 26 C-306 24.68 -306 23.36 -306 22 C-305.34 22 -304.68 22 -304 22 C-303.67 21.01 -303.34 20.02 -303 19 C-293.55629164 18.73718657 -284.11249906 18.47751183 -274.66866636 18.21921277 C-272.21534091 18.15203648 -269.76202234 18.08461318 -267.30870438 18.01716423 C-245.59814504 17.42119629 -223.88705346 16.87226237 -202.17387438 16.38070941 C-184.34972249 15.97665951 -166.52685367 15.53211266 -148.70440292 15.0589695 C-137.88167734 14.7730242 -127.05906959 14.50709274 -116.23486328 14.28344727 C-106.5532509 14.08332874 -96.87330033 13.84651858 -87.19362032 13.5678305 C-82.14572508 13.42369221 -77.09884992 13.29567455 -72.04954147 13.21307564 C-48.11949216 12.80892513 -27.76582186 10.37855321 -5.59632301 0.97300625 C-3 0 -3 0 0 0 Z " fill="#767676" transform="translate(306,98)"/>
<path d="M0 0 C19.8 0 39.6 0 60 0 C61.24674334 3.74023002 61.14552755 7.2316086 61.125 11.125 C61.13080078 12.23681641 61.13080078 12.23681641 61.13671875 13.37109375 C61.1266598 18.8733402 61.1266598 18.8733402 60 20 C57.3337397 20.08855161 54.69352886 20.11524673 52.02734375 20.09765625 C51.22970108 20.0962413 50.43205841 20.09482635 49.61024475 20.09336853 C47.05262565 20.08775316 44.49509282 20.07519812 41.9375 20.0625 C40.20768355 20.05748698 38.47786574 20.05292373 36.74804688 20.04882812 C32.49863761 20.03862791 28.24941584 20.01905568 24 20 C23.67 25.61 23.34 31.22 23 37 C34.22 37 45.44 37 57 37 C57 42.94 57 48.88 57 55 C45.78 55 34.56 55 23 55 C23 66.55 23 78.1 23 90 C15.74 90 8.48 90 1 90 C0.08302641 85.41513205 -0.13496319 81.26173466 -0.11352539 76.62963867 C-0.11367142 75.79985504 -0.11381744 74.97007141 -0.1139679 74.11514282 C-0.11327333 71.38272453 -0.10550229 68.65037508 -0.09765625 65.91796875 C-0.09579045 64.0193943 -0.09436731 62.12081937 -0.09336853 60.22224426 C-0.0895561 55.23278466 -0.0797367 50.24335432 -0.06866455 45.25390625 C-0.05662138 39.26332453 -0.05204212 33.27273301 -0.04621124 27.28214264 C-0.03652426 18.18807477 -0.01735878 9.09407104 0 0 Z " fill="#FDFDFD" transform="translate(9,7)"/>
<path d="M0 0 C3.86648187 3.04365618 6.43554136 5.94127548 8.078125 10.67578125 C8.078125 12.98578125 8.078125 15.29578125 8.078125 17.67578125 C2.138125 17.67578125 -3.801875 17.67578125 -9.921875 17.67578125 C-10.581875 16.35578125 -11.241875 15.03578125 -11.921875 13.67578125 C-15.83349658 11.394002 -18.5951656 11.5941039 -22.921875 12.67578125 C-24.21821121 13.7422324 -24.21821121 13.7422324 -23.984375 16.23828125 C-23.96375 17.04265625 -23.943125 17.84703125 -23.921875 18.67578125 C-19.15784394 20.84960005 -14.67326809 22.31146774 -9.546875 23.48828125 C-1.53766202 25.47573795 5.48067899 28.53621804 10.078125 35.67578125 C11.96137513 41.22698948 11.65853418 46.93455372 9.828125 52.42578125 C5.909193 59.70379783 1.62380619 62.56802473 -5.921875 65.67578125 C-14.92444864 68.21998684 -26.98683792 67.85457943 -35.3359375 63.3828125 C-40.38434311 60.18439266 -44.98916916 57.17477601 -46.59765625 51.140625 C-47.11095797 48.65792078 -47.5518121 46.18344429 -47.921875 43.67578125 C-45.625338 42.52751275 -44.33874333 42.5601695 -41.7890625 42.578125 C-40.98339844 42.58134766 -40.17773438 42.58457031 -39.34765625 42.58789062 C-38.08501953 42.60045898 -38.08501953 42.60045898 -36.796875 42.61328125 C-35.94738281 42.61779297 -35.09789062 42.62230469 -34.22265625 42.62695312 C-32.12236591 42.63875251 -30.0221117 42.65668819 -27.921875 42.67578125 C-27.24125 44.12984375 -27.24125 44.12984375 -26.546875 45.61328125 C-25.26401279 48.74657707 -25.26401279 48.74657707 -22.921875 49.67578125 C-20.81232438 49.87316848 -20.81232438 49.87316848 -18.484375 49.86328125 C-17.70191406 49.87746094 -16.91945313 49.89164063 -16.11328125 49.90625 C-13.62981513 49.81664189 -13.62981513 49.81664189 -10.921875 47.67578125 C-10.87019973 45.25311039 -10.87019973 45.25311039 -11.921875 42.67578125 C-16.63254001 40.30855313 -21.2094525 39.03688482 -26.359375 37.86328125 C-34.47356921 35.85770494 -40.18351218 32.64716563 -44.921875 25.67578125 C-46.77942907 20.10311904 -46.64340045 14.02073898 -44.921875 8.42578125 C-40.73034864 2.6624325 -35.64058229 -1.94048071 -28.67578125 -3.890625 C-18.92000035 -5.42664157 -8.38737838 -5.77910828 0 0 Z " fill="#FDFDFD" transform="translate(503.921875,31.32421875)"/>
<path d="M0 0 C0.495 7.92 0.495 7.92 1 16 C7.93 16.495 7.93 16.495 15 17 C15 22.94 15 28.88 15 35 C10.05 35 5.1 35 0 35 C0.11369916 39.58387159 0.24046184 44.16673351 0.375 48.75 C0.4059375 50.05195312 0.436875 51.35390625 0.46875 52.6953125 C0.50742187 53.94570312 0.54609375 55.19609375 0.5859375 56.484375 C0.63306885 58.21252441 0.63306885 58.21252441 0.68115234 59.97558594 C0.98692923 62.87601781 1.32629422 64.62725921 3 67 C5.8786935 67.70535611 5.8786935 67.70535611 9.125 67.75 C10.76855469 67.83507812 10.76855469 67.83507812 12.4453125 67.921875 C13.28835938 67.94765625 14.13140625 67.9734375 15 68 C15.02684312 70.81256281 15.04676188 73.62487241 15.0625 76.4375 C15.07087891 77.23994141 15.07925781 78.04238281 15.08789062 78.86914062 C15.0965143 80.91295221 15.0522815 82.95683902 15 85 C12.45048378 87.54951622 6.18542532 87.11952676 2.6875 87.25 C-3.64123774 87.16345316 -9.42430464 85.51182119 -14.875 82.3125 C-21.26225708 75.36166142 -22.13436065 67.59016307 -22.09765625 58.4140625 C-22.0962413 57.71227875 -22.09482635 57.010495 -22.09336853 56.28744507 C-22.0878129 54.06658496 -22.07526892 51.84582916 -22.0625 49.625 C-22.05747926 48.11067855 -22.05291736 46.5963555 -22.04882812 45.08203125 C-22.03785807 41.38798748 -22.02062449 37.69400394 -22 34 C-26.455 34.495 -26.455 34.495 -31 35 C-31 29.06 -31 23.12 -31 17 C-28.36 17 -25.72 17 -23 17 C-22.82942804 15.45876053 -22.66375 13.91697919 -22.5 12.375 C-22.4071875 11.51648437 -22.314375 10.65796875 -22.21875 9.7734375 C-21.98722096 6.83798006 -21.96547389 3.94335123 -22 1 C-19.08340625 0.83196579 -16.16673658 0.66552033 -13.25 0.5 C-12.425 0.45230469 -11.6 0.40460937 -10.75 0.35546875 C-9.95078125 0.31035156 -9.1515625 0.26523438 -8.328125 0.21875 C-7.5949707 0.17685547 -6.86181641 0.13496094 -6.10644531 0.09179688 C-4.07266386 0.00316662 -2.03571175 0 0 0 Z " fill="#FDFDFD" transform="translate(547,11)"/>
<path d="M0 0 C-0.52927129 6.96892343 -1.65371454 13.59233783 -3.28515625 20.3828125 C-3.50570175 21.32309296 -3.72624725 22.26337341 -3.95347595 23.23214722 C-4.65052503 26.19787412 -5.35634788 29.16142891 -6.0625 32.125 C-6.54029834 34.15090383 -7.01751729 36.17694441 -7.49414062 38.203125 C-8.65607442 43.13702132 -9.82587466 48.06899135 -11 53 C-13.80582839 51.5970858 -14.17970035 49.87491986 -15.49609375 47.046875 C-16.21055664 45.52900391 -16.21055664 45.52900391 -16.93945312 43.98046875 C-17.43380859 42.91441406 -17.92816406 41.84835938 -18.4375 40.75 C-19.41307882 38.66038965 -20.39087176 36.5718113 -21.37109375 34.484375 C-21.80349365 33.55334961 -22.23589355 32.62232422 -22.68139648 31.66308594 C-23.96871821 28.95159664 -23.96871821 28.95159664 -25.66430664 26.34472656 C-27 24 -27 24 -27 21 C-118.41 21 -209.82 21 -304 21 C-303.67 20.34 -303.34 19.68 -303 19 C-293.55629164 18.73718657 -284.11249906 18.47751183 -274.66866636 18.21921277 C-272.21534091 18.15203648 -269.76202234 18.08461318 -267.30870438 18.01716423 C-245.59814504 17.42119629 -223.88705346 16.87226237 -202.17387438 16.38070941 C-184.34972249 15.97665951 -166.52685367 15.53211266 -148.70440292 15.0589695 C-137.88167734 14.7730242 -127.05906959 14.50709274 -116.23486328 14.28344727 C-106.5532509 14.08332874 -96.87330033 13.84651858 -87.19362032 13.5678305 C-82.14572508 13.42369221 -77.09884992 13.29567455 -72.04954147 13.21307564 C-48.11949216 12.80892513 -27.76582186 10.37855321 -5.59632301 0.97300625 C-3 0 -3 0 0 0 Z " fill="#FCFCFC" transform="translate(306,98)"/>
<path d="M0 0 C7.26 0 14.52 0 22 0 C22 30.69 22 61.38 22 93 C14.74 93 7.48 93 0 93 C0 62.31 0 31.62 0 0 Z " fill="#FDFDFD" transform="translate(395,4)"/>
<path d="M0 0 C0 7.26 0 14.52 0 22 C-3.031875 22.12375 -3.031875 22.12375 -6.125 22.25 C-11.68756769 22.66810149 -14.88941262 23.23196156 -19 27 C-20.71688134 30.43376268 -20.24509002 34.38114365 -20.31640625 38.1640625 C-20.33718735 39.07127045 -20.35796844 39.97847839 -20.37937927 40.91317749 C-20.44487135 43.8170398 -20.50375814 46.72099405 -20.5625 49.625 C-20.60568555 51.59115542 -20.64929985 53.55730147 -20.69335938 55.5234375 C-20.80136093 60.34886539 -20.90043677 65.17436101 -21 70 C-28.26 70 -35.52 70 -43 70 C-43 47.23 -43 24.46 -43 1 C-36.07 1 -29.14 1 -22 1 C-21.67 3.64 -21.34 6.28 -21 9 C-20.54625 8.2575 -20.0925 7.515 -19.625 6.75 C-14.04753216 0.90693845 -7.87054698 0 0 0 Z " fill="#FDFDFD" transform="translate(154,27)"/>
<path d="M0 0 C7.26 0 14.52 0 22 0 C22 22.44 22 44.88 22 68 C14.74 68 7.48 68 0 68 C0 45.56 0 23.12 0 0 Z " fill="#FDFDFD" transform="translate(427,29)"/>
<path d="M0 0 C7.26 0 14.52 0 22 0 C22 22.44 22 44.88 22 68 C14.74 68 7.48 68 0 68 C0 45.56 0 23.12 0 0 Z " fill="#FDFDFD" transform="translate(78,29)"/>
<path d="M0 0 C0.96888267 -0.00199105 1.93776534 -0.0039821 2.9360081 -0.00603348 C4.00797509 -0.00312064 5.07994209 -0.0002078 6.18439293 0.00279331 C7.31724578 0.00193889 8.45009864 0.00108446 9.61728036 0.00020415 C13.43909527 -0.00145188 17.26086694 0.00407275 21.08267784 0.00952244 C23.81200247 0.01036013 26.54132623 0.00969068 29.27065086 0.00907993 C35.15997966 0.00855479 41.04929741 0.01170058 46.93862343 0.01731777 C55.45366996 0.02543408 63.96871113 0.02804813 72.48376112 0.02930576 C86.29782363 0.03149608 100.11188025 0.0381556 113.92593956 0.04760838 C127.34748874 0.05678303 140.76903632 0.0638636 154.190588 0.06811619 C155.43089649 0.06851027 155.43089649 0.06851027 156.69626172 0.06891232 C160.84430818 0.07021733 164.99235465 0.07148104 169.14040112 0.07272422 C203.56956922 0.08309619 237.99873032 0.10071395 272.42789268 0.12304783 C272.42789268 0.45304783 272.42789268 0.78304783 272.42789268 1.12304783 C181.84289268 1.61804783 181.84289268 1.61804783 89.42789268 2.12304783 C89.09789268 2.78304783 88.76789268 3.44304783 88.42789268 4.12304783 C89.15379601 4.14810398 89.87969933 4.17316013 90.62759972 4.19897556 C93.93618715 4.31546024 97.24452644 4.43794797 100.55289268 4.56054783 C101.69500206 4.59986423 102.83711143 4.63918064 104.01383018 4.67968845 C105.12242393 4.72158298 106.23101768 4.76347752 107.37320518 4.80664158 C108.89711876 4.86162815 108.89711876 4.86162815 110.45181847 4.91772556 C113.49523025 5.12769351 116.42874777 5.57366079 119.42789268 6.12304783 C119.42789268 6.45304783 119.42789268 6.78304783 119.42789268 7.12304783 C77.45041724 7.46402957 35.37467357 6.75332137 -6.57210732 5.12304783 C-6.57210732 3.80304783 -6.57210732 2.48304783 -6.57210732 1.12304783 C-4.16830039 -0.07885563 -2.68475101 -0.00121262 0 0 Z " fill="#979797" transform="translate(6.572107315063477,118.87695217132568)"/>
<path d="M0 0 C3.12001504 1.68818449 5.39047471 3.78094941 7 7 C7.68128376 13.81283762 7.68128376 13.81283762 5.953125 16.82421875 C3.63013471 19.64596873 1.75452966 21.71770297 -1.91796875 22.30859375 C-6.47498896 22.56742622 -9.35464429 22.26562368 -13 19.375 C-15.16259917 17.22748873 -16.01325516 15.9653893 -17.125 13.0625 C-16.93482077 8.40310884 -15.66795969 4.54547453 -12.19140625 1.32421875 C-8.33145733 -1.00826375 -4.35411072 -0.7542554 0 0 Z " fill="#FDFDFD" transform="translate(94,1)"/>
<path d="M0 0 C4.04095372 2.09530934 6.34382125 3.76668329 8 8 C8.42556948 12.95611122 7.65591243 16.19650728 4.5 20.0625 C1.19517376 22.35045663 -1.86073628 22.67030992 -5.81640625 22.41015625 C-9.42940079 21.7315079 -11.37584825 20.56014805 -14 18 C-16.16185087 13.74096902 -16.21737408 10.77998934 -14.9375 6.1875 C-11.34784398 0.28193686 -6.77938101 -1.20728703 0 0 Z " fill="#FDFDFD" transform="translate(442,1)"/>
<path d="M0 0 C0.66 0.33 1.32 0.66 2 1 C1.67 1.66 1.34 2.32 1 3 C1.99 2.67 2.98 2.34 4 2 C6.96593988 1.96101388 9.90379308 1.9826606 12.86743164 2.05419922 C13.77529922 2.07195404 14.68316681 2.08970886 15.61854553 2.10800171 C18.63254862 2.1683402 21.64632414 2.23637451 24.66015625 2.3046875 C26.76508311 2.34893571 28.87001799 2.39280409 30.97496033 2.43630981 C35.40110992 2.52892986 39.82716128 2.62517263 44.25317383 2.72412109 C49.8775164 2.849718 55.50198083 2.9680392 61.12653446 3.08375359 C65.48426125 3.1739753 69.84191475 3.26740568 74.19955254 3.36182022 C76.26960008 3.40644661 78.33966447 3.45029985 80.40974617 3.49331284 C90.29284688 3.70084104 100.16870693 3.94865044 110.04077148 4.47314453 C110.76208032 4.51021955 111.48338915 4.54729458 112.22655582 4.58549309 C116.21020275 4.81549492 120.07766985 5.26794267 124 6 C124 6.33 124 6.66 124 7 C82.02252456 7.34098174 39.94678089 6.63027354 -2 5 C-2 3.68 -2 2.36 -2 1 C-1.34 0.67 -0.68 0.34 0 0 Z " fill="#959696" transform="translate(2,119)"/>
<path d="M0 0 C-0.33 0.66 -0.66 1.32 -1 2 C3.95 2.33 8.9 2.66 14 3 C14 3.33 14 3.66 14 4 C-17.02 4 -48.04 4 -80 4 C-79.67 3.34 -79.34 2.68 -79 2 C-69.43797337 1.73843423 -59.87592714 1.4776001 -50.31385517 1.21769714 C-45.87369629 1.09698797 -41.43354454 0.97602783 -36.9934082 0.85449219 C-32.70757305 0.73718935 -28.42172034 0.62054833 -24.13585472 0.50436401 C-22.50161282 0.45994584 -20.86737736 0.41529015 -19.23314857 0.37039185 C-16.94231426 0.30749495 -14.65145841 0.24544639 -12.3605957 0.18359375 C-11.05709671 0.14806396 -9.75359772 0.11253418 -8.41059875 0.07592773 C-5.60520397 0.01347323 -2.80585176 -0.01578267 0 0 Z " fill="#EFEFEF" transform="translate(82,115)"/>
<path d="M0 0 C23.265 0.495 23.265 0.495 47 1 C47.495 2.485 47.495 2.485 48 4 C23.745 3.505 23.745 3.505 -1 3 C-0.67 2.01 -0.34 1.02 0 0 Z " fill="#787878" transform="translate(4,119)"/>
<path d="M0 0 C2.31 0 4.62 0 7 0 C8.4049404 3.89060419 7.69513239 7.23092362 7.0625 11.25 C6.86785156 12.51328125 6.67320312 13.7765625 6.47265625 15.078125 C6.31667969 16.04234375 6.16070312 17.0065625 6 18 C6.99 18.33 7.98 18.66 9 19 C9.33 18.01 9.66 17.02 10 16 C10 16.66 10 17.32 10 18 C10.99 18.33 11.98 18.66 13 19 C13 19.99 13 20.98 13 22 C10.03 21.01 7.06 20.02 4 19 C3.01155049 15.05352382 3.03808095 11.72607036 3.4375 7.6875 C3.53933594 6.61886719 3.64117187 5.55023438 3.74609375 4.44921875 C3.82988281 3.64097656 3.91367187 2.83273438 4 2 C2.02 2.33 0.04 2.66 -2 3 C-1.34 2.67 -0.68 2.34 0 2 C0 1.34 0 0.68 0 0 Z " fill="#E56F2C" transform="translate(308,89)"/>
<path d="M0 0 C0.66 0.33 1.32 0.66 2 1 C1.38125 1.721875 0.7625 2.44375 0.125 3.1875 C-1.83666353 5.78381938 -2.95316 7.94671666 -4 11 C-5.670625 11.2165625 -5.670625 11.2165625 -7.375 11.4375 C-10.82142047 11.78372035 -10.82142047 11.78372035 -13 13 C-11.57142347 9.63951428 -9.83945402 7.72274139 -7.0625 5.375 C-6.37285156 4.78460937 -5.68320312 4.19421875 -4.97265625 3.5859375 C-3 2 -3 2 0 0 Z " fill="#DF6D2C" transform="translate(304,11)"/>
<path d="M0 0 C0.33 0.66 0.66 1.32 1 2 C2.65 2 4.3 2 6 2 C3.82813579 4.17186421 2.50023469 4.6793248 -0.375 5.625 C-1.14585937 5.88539062 -1.91671875 6.14578125 -2.7109375 6.4140625 C-5 7 -5 7 -9 7 C-8.67 5.35 -8.34 3.7 -8 2 C-7.236875 1.855625 -6.47375 1.71125 -5.6875 1.5625 C-2.91827092 1.0367406 -2.91827092 1.0367406 0 0 Z " fill="#DE6D28" transform="translate(362,104)"/>
<path d="M0 0 C1.875 0.25 1.875 0.25 4 1 C5.25 3.0625 5.25 3.0625 6 5 C7.32 5 8.64 5 10 5 C9.67 5.99 9.34 6.98 9 8 C8.34 7.67 7.68 7.34 7 7 C7.99 8.485 7.99 8.485 9 10 C11.58380177 10.25030977 11.58380177 10.25030977 14 10 C11.89762335 11.27644297 10.55072248 12.03664081 8.0625 11.87109375 C5.09325316 10.61703685 4.31036738 8.77398646 2.75 6 C2.22921875 5.0925 1.7084375 4.185 1.171875 3.25 C0 1 0 1 0 0 Z " fill="#DC722E" transform="translate(288,83)"/>
<path d="M0 0 C0.66 0.33 1.32 0.66 2 1 C1.505 2.134375 1.01 3.26875 0.5 4.4375 C-1.24646333 9.02094132 -1.30300849 13.15186415 -1 18 C-1.33 17.34 -1.66 16.68 -2 16 C-2.66 16 -3.32 16 -4 16 C-4.12375 15.030625 -4.2475 14.06125 -4.375 13.0625 C-4.58125 12.051875 -4.7875 11.04125 -5 10 C-5.66 9.67 -6.32 9.34 -7 9 C-6.67 8.01 -6.34 7.02 -6 6 C-5.01 6 -4.02 6 -3 6 C-2.814375 4.7934375 -2.814375 4.7934375 -2.625 3.5625 C-2.41875 2.716875 -2.2125 1.87125 -2 1 C-1.34 0.67 -0.68 0.34 0 0 Z " fill="#DB6E2F" transform="translate(313,34)"/>
<path d="M0 0 C4.07502794 -0.07420211 8.14979392 -0.1286257 12.2253418 -0.16479492 C13.61147919 -0.17987397 14.99756894 -0.2003405 16.38354492 -0.22631836 C18.37658146 -0.26273716 20.36996723 -0.27813018 22.36328125 -0.29296875 C23.56251221 -0.3086792 24.76174316 -0.32438965 25.99731445 -0.34057617 C29 0 29 0 30.91479492 1.51831055 C31.2729126 2.00726807 31.63103027 2.49622559 32 3 C27.79142976 2.86055132 23.583213 2.71231417 19.375 2.5625 C18.18519531 2.52318359 16.99539062 2.48386719 15.76953125 2.44335938 C14.61582031 2.40146484 13.46210938 2.35957031 12.2734375 2.31640625 C11.21560059 2.27974854 10.15776367 2.24309082 9.06787109 2.20532227 C5.99072727 1.99937941 3.0313191 1.55819179 0 1 C0 0.67 0 0.34 0 0 Z " fill="#8B8B8B" transform="translate(120,124)"/>
<path d="M0 0 C5.80342274 1.48805711 10.17590879 4.59097555 15 8 C13 9 13 9 10.3984375 8.22265625 C8.90183594 7.64837891 8.90183594 7.64837891 7.375 7.0625 C6.37210937 6.68222656 5.36921875 6.30195313 4.3359375 5.91015625 C3.56507813 5.60980469 2.79421875 5.30945313 2 5 C2.33 4.01 2.66 3.02 3 2 C1.68 1.67 0.36 1.34 -1 1 C-0.67 0.67 -0.34 0.34 0 0 Z " fill="#DB692D" transform="translate(352,7)"/>
<path d="M0 0 C2.10827055 3.16240582 2.33817465 4.50657469 2.625 8.1875 C2.69976562 9.08855469 2.77453125 9.98960938 2.8515625 10.91796875 C2.90054687 11.60503906 2.94953125 12.29210938 3 13 C1.68 13.33 0.36 13.66 -1 14 C-0.34 13.67 0.32 13.34 1 13 C0.66226562 12.43796875 0.32453125 11.8759375 -0.0234375 11.296875 C-1.1689058 8.60273356 -1.0470026 7.11961767 -0.625 4.25 C-0.51414062 3.45078125 -0.40328125 2.6515625 -0.2890625 1.828125 C-0.19367188 1.22484375 -0.09828125 0.6215625 0 0 Z " fill="#D26A2E" transform="translate(381,42)"/>
<path d="M0 0 C-2.39824947 2.39824947 -3.27335218 2.31436204 -6.5625 2.5625 C-9.58047788 2.58449303 -9.58047788 2.58449303 -12 4 C-14.67058851 4.14115161 -17.32432238 4.04247107 -20 4 C-20 3.67 -20 3.34 -20 3 C-17.41932437 2.30081695 -14.83627153 1.61538951 -12.25 0.9375 C-11.15558594 0.63875977 -11.15558594 0.63875977 -10.0390625 0.33398438 C-6.28968956 -0.63744407 -3.69725762 -1.15449387 0 0 Z " fill="#D66E33" transform="translate(339,47)"/>
<path d="M0 0 C-3.34520258 1.93242285 -6.44767482 2.5463853 -10.25 3.125 C-11.32765625 3.29257812 -12.4053125 3.46015625 -13.515625 3.6328125 C-14.33546875 3.75398438 -15.1553125 3.87515625 -16 4 C-15.67 3.01 -15.34 2.02 -15 1 C-9.91913204 0.15318867 -5.15171623 -0.09038099 0 0 Z " fill="#DA7031" transform="translate(376,57)"/>
<path d="M0 0 C-0.66 0 -1.32 0 -2 0 C-1.34 1.98 -0.68 3.96 0 6 C-0.66 6 -1.32 6 -2 6 C-2.66 5.01 -3.32 4.02 -4 3 C-4.99 3.66 -5.98 4.32 -7 5 C-7 3.35 -7 1.7 -7 0 C-3.86650268 -1.04449911 -3.01031744 -0.93423645 0 0 Z " fill="#DB6A25" transform="translate(319,72)"/>
<path d="M0 0 C2.31 0 4.62 0 7 0 C7.6875 1.8125 7.6875 1.8125 8 4 C6.5625 5.75 6.5625 5.75 5 7 C4.67 5.35 4.34 3.7 4 2 C2.02 2.33 0.04 2.66 -2 3 C-1.34 2.67 -0.68 2.34 0 2 C0 1.34 0 0.68 0 0 Z " fill="#D0672E" transform="translate(308,89)"/>
<path d="M0 0 C0.98484375 0.01804688 1.9696875 0.03609375 2.984375 0.0546875 C4.10585938 0.08949219 4.10585938 0.08949219 5.25 0.125 C2.88310671 2.31719402 1.73272731 3.1121902 -1.546875 3.19921875 C-2.52140625 3.07160156 -3.4959375 2.94398437 -4.5 2.8125 C-5.48484375 2.69261719 -6.4696875 2.57273438 -7.484375 2.44921875 C-8.23203125 2.34222656 -8.9796875 2.23523437 -9.75 2.125 C-6.40060119 0.09941119 -3.88037449 -0.09238987 0 0 Z " fill="#E66F25" transform="translate(321.75,50.875)"/>
<path d="M0 0 C2 2 2 2 4 5 C1.36 5.33 -1.28 5.66 -4 6 C-4 5.34 -4 4.68 -4 4 C-3.34 3.67 -2.68 3.34 -2 3 C-2.33 2.34 -2.66 1.68 -3 1 C-2.01 0.67 -1.02 0.34 0 0 Z " fill="#D96A2B" transform="translate(324,65)"/>
<path d="M0 0 C1.32 0.33 2.64 0.66 4 1 C5.64661571 4.6068725 6.27162597 6.1851221 5 10 C3.35 6.7 1.7 3.4 0 0 Z " fill="#DD7939" transform="translate(288,83)"/>
<path d="M0 0 C1.4540625 0.0309375 1.4540625 0.0309375 2.9375 0.0625 C0.32235683 2.18288635 -2.25887616 4.19341744 -5.0625 6.0625 C-3.98897059 0.08140756 -3.98897059 0.08140756 0 0 Z " fill="#D26D34" transform="translate(320.0625,27.9375)"/>
<path d="M0 0 C0.66 0 1.32 0 2 0 C2.93423645 3.01031744 3.04449911 3.86650268 2 7 C1.34 7 0.68 7 0 7 C-0.38133299 5.0085944 -0.71325582 3.00720923 -1 1 C-0.67 0.67 -0.34 0.34 0 0 Z " fill="#757575" transform="translate(290,157)"/>
<path d="M0 0 C0.66 0.33 1.32 0.66 2 1 C1.67 1.66 1.34 2.32 1 3 C2.65 3 4.3 3 6 3 C6 3.33 6 3.66 6 4 C3.36 4.33 0.72 4.66 -2 5 C-2 3.68 -2 2.36 -2 1 C-1.34 0.67 -0.68 0.34 0 0 Z " fill="#DF6C28" transform="translate(354,58)"/>
<path d="M0 0 C4.875 4.75 4.875 4.75 6 7 C4.35 7.33 2.7 7.66 1 8 C0.67 5.36 0.34 2.72 0 0 Z " fill="#DC7334" transform="translate(319,78)"/>
<path d="M0 0 C-1.15173355 2.46800047 -2.04783565 4.04783565 -4 6 C-4 5.34 -4 4.68 -4 4 C-4.99 3.67 -5.98 3.34 -7 3 C-2.25 0 -2.25 0 0 0 Z " fill="#DF7130" transform="translate(371,79)"/>
<path d="" fill="#FFFFFF" transform="translate(0,0)"/>
</svg>
