<svg width="469" height="125" viewBox="0 0 469 125" fill="none" xmlns="http://www.w3.org/2000/svg">
<mask id="mask0_8_7" style="mask-type:alpha" maskUnits="userSpaceOnUse" x="0" y="0" width="469" height="125">
<rect width="469" height="125" fill="#D9D9D9"/>
</mask>
<g mask="url(#mask0_8_7)">
<path d="M5.67188 96V28.7812H53.1562V42.0938H22.4062V56.25H50.2031V69.6094H22.4531V96H5.67188ZM70.5 37.0781C67.9219 37.0781 65.7656 36.1875 63.9844 34.3594C62.1562 32.5312 61.2656 30.375 61.2656 27.8438C61.2656 25.3125 62.1562 23.1562 63.9844 21.3281C65.7656 19.5469 67.9219 18.6562 70.5 18.6562C72.9844 18.6562 75.1406 19.5469 76.9688 21.3281C78.75 23.1562 79.6406 25.3125 79.6406 27.8438C79.6406 30.375 78.75 32.5312 76.9688 34.3594C75.1406 36.1875 72.9844 37.0781 70.5 37.0781ZM62.5781 96V43.2188H78.3281V96H62.5781ZM87.9844 96V43.2188H103.031L103.734 49.4531C107.344 44.3906 112.594 42.375 121.172 42.375V55.7344C109.734 55.7344 103.734 60.9375 103.734 69.6094V96H87.9844ZM198.375 42.375C205.828 42.375 210.891 44.8125 213.891 49.6875C216.844 54.5625 218.016 60.75 218.016 69.6094V96H202.266V69.6094C202.266 60.375 199.031 55.7344 192.609 55.7344C185.531 55.7344 181.453 61.0312 181.453 69.6094V96H165.703V69.6094C165.703 60.5625 162.75 55.7344 156.141 55.7344C149.062 55.7344 144.984 61.0312 144.984 69.6094V96H129.234V43.2188H144.281L144.984 50.2031C147.703 45 153.328 42.375 161.906 42.375C170.578 42.375 176.344 45.9844 179.109 53.2031C182.719 45.9844 189.141 42.375 198.375 42.375Z" fill="#FF4A17"/>
<path d="M322.922 96V24H338.672V96H322.922ZM356.438 37.0781C353.859 37.0781 351.703 36.1875 349.922 34.3594C348.094 32.5312 347.203 30.375 347.203 27.8438C347.203 25.3125 348.094 23.1562 349.922 21.3281C351.703 19.5469 353.859 18.6562 356.438 18.6562C358.922 18.6562 361.078 19.5469 362.906 21.3281C364.688 23.1562 365.578 25.3125 365.578 27.8438C365.578 30.375 364.688 32.5312 362.906 34.3594C361.078 36.1875 358.922 37.0781 356.438 37.0781ZM348.516 96V43.2188H364.266V96H348.516ZM418.453 57.4688L402.703 58.3125C402.188 55.5 399.469 53.2031 395.766 53.2031C391.406 53.2031 388.594 54.8906 388.594 57.9375C388.594 60 390.516 61.5 392.625 62.25C393.656 62.625 395.062 63.0469 396.891 63.5156C402.562 64.875 406.125 65.8594 409.875 67.3125C411.75 68.0156 413.25 68.7656 414.422 69.5625C418.125 72.0469 420 75.1875 419.812 80.0156C419.438 90.8438 411 96.7969 395.953 96.7969C388.641 96.7969 382.875 95.3906 378.609 92.625C374.344 89.8594 372 85.875 371.578 80.6719L387.281 79.5C388.031 83.3906 391.641 85.7344 395.953 85.7344C400.641 85.7344 403.969 83.7656 403.969 80.5312C403.969 77.4844 400.266 75.1406 392.812 73.5C389.625 72.7031 387.047 72.0469 385.125 71.4375C383.203 70.8281 381.328 70.125 379.594 69.2812C377.859 68.4844 376.547 67.5469 375.656 66.4688C373.922 64.4062 372.844 61.5938 372.844 57.6562C372.844 47.6719 381.375 42.375 396.141 42.375C409.594 42.375 417.75 47.5781 418.453 57.4688ZM431.25 43.2188V31.4062H446.953V43.2188H459.422V55.4531H446.953V76.5469C446.953 80.25 448.359 82.4531 451.219 83.0625C453.422 83.7656 456.141 83.7656 459.422 83.1094V96C455.906 96.5156 452.484 96.7969 449.25 96.7969C442.781 96.7969 438.188 95.2031 435.422 92.0156C432.656 88.8281 431.25 83.8594 431.25 77.1094V55.4531H424.453V43.2188H431.25Z" fill="white"/>
<path d="M255.983 15.9297C268.261 12.7328 278.889 13.7236 287.866 18.9021C296.83 24.0277 302.986 33.0206 306.334 45.8809L309.394 57.6298L252.157 72.5326C254.147 79.3045 257.583 84.1457 262.466 87.0561C267.335 89.9135 273.183 90.4535 280.01 88.6759C285.62 87.2152 290.636 85.316 295.056 82.9782C299.463 80.5876 303.871 77.5469 308.278 73.8563L313.156 92.591C309.276 95.9184 305.058 98.7118 300.504 100.971C296.003 103.217 290.339 105.229 283.512 107.006C274.726 109.294 266.467 109.692 258.732 108.203C250.998 106.713 244.305 103.143 238.652 97.4948C233.052 91.8325 228.909 83.8413 226.222 73.5213C223.535 63.2013 223.062 54.1132 224.802 46.2571C226.49 38.4147 230.035 31.9536 235.437 26.8739C240.826 21.7412 247.674 18.0931 255.983 15.9297ZM260.627 33.1148C255.864 34.355 252.374 36.9025 250.157 40.7575C247.926 44.5596 247.353 49.7382 248.438 56.2935L282.414 47.4469C280.93 42.1822 278.344 38.1087 274.655 35.2265C270.966 32.3443 266.29 31.6404 260.627 33.1148Z" fill="#F5DEB3"/>
</g>
</svg>
